<svg id="svg" version="1.1" xmlns="http://www.w3.org/2000/svg" xmlns:xlink="http://www.w3.org/1999/xlink" width="400" height="387.54055807916933" viewBox="0, 0, 400,387.54055807916933"><g id="svgg"><path id="path0" d="M13.457 63.974 C 12.668 64.511,12.209 65.079,12.089 65.672 C 12.074 65.743,11.966 65.953,11.849 66.137 C 11.732 66.322,11.753 66.614,11.896 66.786 C 12.039 66.958,12.150 67.197,12.143 67.317 C 12.136 67.436,12.570 68.214,13.108 69.046 C 13.647 69.878,14.087 70.656,14.087 70.776 C 14.087 70.895,14.305 71.145,14.571 71.332 C 14.837 71.519,15.055 71.840,15.055 72.046 C 15.055 72.252,15.179 72.421,15.330 72.421 C 15.481 72.421,15.533 72.537,15.445 72.680 C 15.356 72.823,15.383 72.940,15.503 72.940 C 15.763 72.940,16.758 74.541,16.672 74.822 C 16.639 74.929,16.731 75.016,16.876 75.016 C 17.021 75.016,17.343 75.454,17.590 75.990 C 17.838 76.525,18.245 77.116,18.494 77.302 C 18.744 77.489,18.949 77.802,18.949 77.997 C 18.949 78.193,19.102 78.508,19.290 78.697 C 19.699 79.108,21.581 82.025,21.437 82.025 C 21.382 82.025,21.675 82.387,22.089 82.831 C 22.503 83.274,22.842 83.792,22.842 83.980 C 22.842 84.169,22.993 84.478,23.176 84.667 C 23.961 85.473,25.172 87.536,25.012 87.794 C 24.905 87.967,24.961 88.000,25.156 87.879 C 25.358 87.754,25.525 87.881,25.616 88.228 C 25.694 88.528,25.848 88.774,25.957 88.774 C 26.067 88.774,26.225 88.978,26.309 89.228 C 26.483 89.748,26.976 90.536,27.450 91.052 C 27.628 91.247,27.774 91.520,27.774 91.659 C 27.774 91.797,28.066 92.226,28.423 92.611 C 28.780 92.996,29.072 93.458,29.072 93.638 C 29.072 93.818,29.189 93.965,29.332 93.965 C 29.474 93.965,29.591 94.126,29.591 94.323 C 29.591 94.519,29.772 94.830,29.992 95.013 C 30.213 95.196,30.331 95.509,30.255 95.707 C 30.178 95.907,30.232 95.997,30.375 95.909 C 30.517 95.821,30.711 95.961,30.807 96.220 C 30.903 96.479,31.048 96.749,31.130 96.820 C 31.409 97.064,32.966 99.371,32.966 99.541 C 32.966 99.634,33.258 100.093,33.615 100.561 C 33.971 101.029,34.263 101.547,34.263 101.712 C 34.263 101.877,34.378 102.012,34.518 102.012 C 34.658 102.012,34.844 102.295,34.931 102.642 C 35.018 102.988,35.261 103.338,35.471 103.419 C 35.682 103.499,35.789 103.671,35.709 103.800 C 35.629 103.928,35.739 104.101,35.952 104.183 C 36.165 104.265,36.340 104.510,36.340 104.729 C 36.340 104.948,36.428 105.127,36.535 105.128 C 36.838 105.131,37.658 106.701,37.494 106.967 C 37.413 107.097,37.511 107.203,37.711 107.203 C 37.912 107.203,38.298 107.631,38.570 108.153 C 38.843 108.676,39.328 109.394,39.650 109.749 C 39.971 110.103,40.234 110.546,40.234 110.732 C 40.234 110.918,40.530 111.390,40.892 111.780 C 41.254 112.171,41.491 112.644,41.419 112.832 C 41.347 113.020,41.432 113.173,41.609 113.173 C 41.883 113.173,43.608 115.716,43.608 116.121 C 43.608 116.198,43.900 116.576,44.257 116.962 C 44.614 117.347,44.906 117.820,44.906 118.013 C 44.906 118.207,44.998 118.365,45.110 118.365 C 45.436 118.365,46.249 119.898,46.074 120.182 C 45.986 120.325,46.077 120.441,46.277 120.441 C 46.477 120.441,46.864 120.868,47.136 121.390 C 47.409 121.911,47.894 122.607,48.215 122.935 C 48.537 123.264,48.799 123.676,48.799 123.852 C 48.799 124.028,49.016 124.413,49.280 124.707 C 49.544 125.002,50.436 126.348,51.261 127.697 C 52.087 129.047,52.922 130.311,53.117 130.506 C 53.312 130.702,53.472 131.028,53.472 131.232 C 53.472 131.436,53.564 131.603,53.677 131.603 C 53.790 131.603,54.223 132.187,54.640 132.901 C 55.057 133.615,55.490 134.199,55.603 134.199 C 55.716 134.199,55.808 134.365,55.808 134.569 C 55.808 134.773,55.991 135.123,56.214 135.346 C 56.437 135.569,56.547 135.870,56.458 136.014 C 56.369 136.157,56.449 136.276,56.636 136.277 C 56.943 136.279,58.188 138.127,58.133 138.498 C 58.120 138.582,58.322 138.846,58.581 139.085 C 59.217 139.671,59.987 141.094,59.781 141.300 C 59.690 141.392,59.810 141.467,60.048 141.467 C 60.286 141.467,60.480 141.632,60.480 141.834 C 60.480 142.037,60.574 142.241,60.688 142.289 C 60.802 142.336,61.471 143.310,62.175 144.452 C 62.878 145.594,63.544 146.567,63.654 146.615 C 63.764 146.662,63.855 146.867,63.855 147.069 C 63.855 147.271,63.942 147.437,64.049 147.438 C 64.353 147.441,65.172 149.012,65.009 149.277 C 64.928 149.407,65.048 149.513,65.275 149.513 C 65.502 149.513,65.760 149.718,65.848 149.968 C 65.936 150.217,66.289 150.802,66.633 151.267 C 66.977 151.732,67.186 152.228,67.098 152.370 C 67.011 152.512,67.093 152.628,67.282 152.628 C 67.607 152.628,68.035 153.241,68.416 154.250 C 68.510 154.500,68.691 154.705,68.817 154.705 C 68.943 154.705,69.046 154.870,69.046 155.072 C 69.046 155.275,69.134 155.479,69.241 155.527 C 69.661 155.714,71.145 158.093,70.993 158.338 C 70.905 158.481,70.988 158.598,71.178 158.598 C 71.368 158.598,71.754 159.036,72.034 159.572 C 72.315 160.107,72.692 160.639,72.872 160.753 C 73.052 160.867,73.199 161.089,73.199 161.247 C 73.199 161.405,73.491 161.917,73.848 162.385 C 74.205 162.853,74.497 163.361,74.497 163.513 C 74.497 163.665,74.585 163.790,74.692 163.791 C 74.995 163.794,75.815 165.365,75.651 165.630 C 75.571 165.760,75.668 165.866,75.869 165.866 C 76.069 165.866,76.455 166.294,76.727 166.816 C 77.000 167.339,77.485 168.057,77.807 168.412 C 78.128 168.767,78.391 169.169,78.391 169.306 C 78.391 169.443,78.683 169.902,79.040 170.326 C 79.396 170.751,79.689 171.254,79.689 171.445 C 79.689 171.637,79.776 171.832,79.883 171.880 C 80.108 171.980,81.765 174.373,81.765 174.597 C 81.765 174.679,82.057 175.094,82.414 175.518 C 82.771 175.942,83.063 176.455,83.063 176.658 C 83.063 176.862,83.155 177.028,83.267 177.028 C 83.540 177.028,84.448 178.583,84.181 178.594 C 84.066 178.598,84.149 178.744,84.366 178.918 C 84.846 179.303,86.672 181.847,86.762 182.255 C 86.798 182.417,87.087 182.840,87.406 183.196 C 87.724 183.551,87.922 183.944,87.845 184.069 C 87.768 184.194,87.835 184.296,87.995 184.296 C 88.154 184.296,88.213 184.413,88.125 184.555 C 88.036 184.698,88.074 184.815,88.209 184.815 C 88.513 184.815,89.379 186.107,89.379 186.559 C 89.379 186.742,89.535 186.892,89.725 186.892 C 89.916 186.892,90.071 186.986,90.071 187.101 C 90.071 187.216,90.655 188.208,91.369 189.307 C 92.083 190.405,92.696 191.436,92.732 191.599 C 92.768 191.762,93.070 192.200,93.404 192.573 C 94.397 193.682,96.821 197.582,96.670 197.827 C 96.593 197.951,96.712 198.053,96.935 198.053 C 97.157 198.053,97.339 198.160,97.339 198.291 C 97.339 198.421,97.982 199.482,98.767 200.649 C 99.552 201.815,100.195 202.877,100.195 203.007 C 100.195 203.138,100.321 203.245,100.476 203.245 C 100.631 203.245,100.714 203.375,100.660 203.535 C 100.607 203.695,100.889 204.175,101.288 204.601 C 101.686 205.027,102.012 205.539,102.012 205.738 C 102.012 205.937,102.110 206.100,102.230 206.100 C 102.422 206.100,102.813 206.767,103.066 207.528 C 103.114 207.670,103.369 207.962,103.632 208.177 C 103.896 208.391,104.131 208.821,104.154 209.132 C 104.177 209.443,104.276 209.649,104.373 209.588 C 104.635 209.426,105.434 210.745,105.252 211.039 C 105.166 211.178,105.249 211.296,105.436 211.302 C 105.780 211.313,107.877 214.412,107.822 214.828 C 107.806 214.953,108.010 215.208,108.276 215.394 C 108.543 215.581,108.761 215.902,108.761 216.108 C 108.761 216.314,108.877 216.483,109.020 216.483 C 109.163 216.483,109.280 216.658,109.280 216.872 C 109.280 217.086,109.378 217.262,109.498 217.262 C 109.733 217.262,110.436 218.569,110.366 218.876 C 110.342 218.979,110.556 219.187,110.840 219.339 C 111.124 219.492,111.356 219.736,111.356 219.884 C 111.356 220.031,111.658 220.547,112.027 221.031 C 112.397 221.515,112.623 222.033,112.531 222.182 C 112.439 222.331,112.521 222.453,112.713 222.453 C 113.118 222.453,114.019 223.857,113.772 224.104 C 113.681 224.195,113.737 224.270,113.898 224.270 C 114.058 224.270,114.492 224.786,114.861 225.416 C 115.231 226.046,115.702 226.702,115.908 226.873 C 116.114 227.044,116.218 227.288,116.140 227.414 C 116.062 227.541,116.141 227.644,116.316 227.644 C 116.491 227.644,116.569 227.710,116.488 227.790 C 116.408 227.870,116.620 228.236,116.959 228.602 C 117.299 228.968,117.513 229.369,117.436 229.494 C 117.359 229.619,117.426 229.721,117.586 229.721 C 117.746 229.721,117.804 229.838,117.716 229.981 C 117.628 230.123,117.660 230.240,117.787 230.240 C 118.061 230.240,119.922 232.882,119.922 233.271 C 119.922 233.418,120.214 233.854,120.571 234.239 C 120.928 234.624,121.220 235.099,121.220 235.293 C 121.220 235.488,121.319 235.687,121.440 235.734 C 121.766 235.862,124.929 240.698,124.935 241.077 C 124.938 241.256,125.024 241.402,125.127 241.402 C 125.386 241.402,126.238 242.740,126.238 243.146 C 126.238 243.329,126.324 243.478,126.428 243.478 C 126.654 243.478,129.295 247.440,129.201 247.638 C 129.166 247.712,129.396 248.051,129.712 248.391 C 130.028 248.730,130.233 249.095,130.168 249.201 C 130.102 249.307,130.211 249.456,130.409 249.532 C 130.754 249.665,132.723 252.633,132.668 252.936 C 132.653 253.017,132.879 253.320,133.170 253.611 C 133.460 253.902,133.629 254.252,133.544 254.390 C 133.459 254.527,133.494 254.640,133.621 254.640 C 133.841 254.640,134.650 255.767,136.494 258.643 C 136.945 259.345,137.313 260.012,137.313 260.124 C 137.313 260.235,137.576 260.609,137.897 260.955 C 138.509 261.612,139.923 263.818,139.958 264.170 C 139.970 264.282,140.197 264.526,140.463 264.713 C 140.730 264.900,140.947 265.170,140.947 265.314 C 140.947 265.459,141.256 265.981,141.633 266.475 C 142.009 266.969,142.258 267.432,142.186 267.505 C 142.113 267.577,142.393 267.999,142.806 268.442 C 143.220 268.885,143.497 269.308,143.423 269.383 C 143.348 269.458,143.520 269.682,143.804 269.881 C 144.089 270.080,144.322 270.372,144.322 270.529 C 144.322 270.686,144.614 271.197,144.971 271.665 C 145.328 272.133,145.620 272.640,145.620 272.793 C 145.620 272.945,145.743 273.069,145.895 273.069 C 146.046 273.069,146.103 273.176,146.023 273.307 C 145.942 273.437,145.979 273.583,146.105 273.631 C 146.499 273.781,148.473 277.016,148.321 277.262 C 148.242 277.390,148.315 277.463,148.483 277.424 C 148.652 277.384,149.035 277.814,149.334 278.379 C 149.634 278.943,150.086 279.612,150.338 279.865 C 150.591 280.117,150.872 280.619,150.962 280.980 C 151.053 281.340,151.210 281.635,151.312 281.635 C 151.523 281.635,152.888 283.651,152.888 283.963 C 152.888 284.075,153.068 284.317,153.289 284.500 C 153.510 284.684,153.620 285.015,153.535 285.238 C 153.449 285.461,153.462 285.560,153.564 285.458 C 153.808 285.214,154.480 285.781,154.297 286.077 C 154.219 286.204,154.298 286.308,154.473 286.308 C 154.648 286.308,154.720 286.379,154.634 286.465 C 154.547 286.552,154.750 286.918,155.085 287.279 C 155.419 287.640,155.850 288.241,156.042 288.614 C 156.234 288.987,156.450 289.351,156.522 289.422 C 156.663 289.562,157.746 291.217,158.390 292.278 C 158.607 292.635,158.772 293.022,158.756 293.140 C 158.741 293.257,158.933 293.467,159.182 293.607 C 159.432 293.747,159.637 294.024,159.637 294.224 C 159.637 294.424,159.929 294.902,160.286 295.287 C 160.642 295.672,160.934 296.146,160.934 296.339 C 160.934 296.532,161.026 296.690,161.138 296.690 C 161.326 296.690,162.069 297.789,162.274 298.369 C 162.322 298.508,162.596 298.876,162.881 299.188 C 163.167 299.500,163.634 300.204,163.919 300.754 C 164.204 301.303,164.613 301.894,164.828 302.068 C 165.042 302.242,165.121 302.388,165.004 302.393 C 164.887 302.397,164.975 302.585,165.199 302.809 C 165.423 303.033,165.607 303.384,165.607 303.588 C 165.607 303.792,165.721 303.958,165.860 303.958 C 165.999 303.958,166.307 304.338,166.545 304.802 C 166.783 305.266,167.259 305.983,167.604 306.396 C 167.948 306.808,168.169 307.305,168.095 307.499 C 168.020 307.693,168.112 307.852,168.300 307.852 C 168.487 307.852,168.863 308.290,169.135 308.825 C 169.407 309.361,169.694 309.857,169.772 309.929 C 170.153 310.276,171.070 311.746,170.906 311.746 C 170.803 311.746,170.943 311.950,171.216 312.200 C 172.115 313.020,173.146 314.811,172.801 314.951 C 172.597 315.034,172.623 315.086,172.877 315.100 C 173.231 315.118,174.238 316.477,175.186 318.216 C 175.386 318.583,175.824 319.214,176.159 319.618 C 176.494 320.021,176.768 320.518,176.768 320.721 C 176.768 320.924,176.860 321.090,176.972 321.090 C 177.273 321.090,178.080 322.547,177.886 322.741 C 177.795 322.832,177.915 322.907,178.153 322.907 C 178.391 322.907,178.585 323.082,178.585 323.297 C 178.585 323.511,178.702 323.686,178.845 323.686 C 178.988 323.686,179.104 323.843,179.104 324.035 C 179.104 324.227,179.390 324.716,179.739 325.122 C 180.087 325.528,180.320 325.945,180.256 326.049 C 180.192 326.152,180.232 326.276,180.345 326.324 C 180.458 326.372,180.832 326.812,181.177 327.302 C 181.521 327.792,181.633 328.099,181.427 327.985 C 181.220 327.871,181.372 328.068,181.765 328.423 C 182.158 328.777,182.479 329.186,182.479 329.330 C 182.479 329.474,182.659 329.742,182.880 329.925 C 183.101 330.109,183.221 330.415,183.148 330.606 C 183.074 330.797,183.157 330.955,183.331 330.956 C 183.620 330.958,184.857 332.822,184.804 333.177 C 184.791 333.261,185.022 333.539,185.317 333.794 C 185.612 334.050,185.853 334.341,185.853 334.441 C 185.853 334.541,186.145 335.005,186.502 335.473 C 186.859 335.941,187.151 336.459,187.151 336.624 C 187.151 336.789,187.260 336.924,187.393 336.924 C 187.526 336.924,187.716 337.178,187.815 337.489 C 187.913 337.800,188.272 338.354,188.611 338.719 C 188.950 339.085,189.228 339.532,189.228 339.712 C 189.228 339.892,189.318 340.039,189.428 340.039 C 189.539 340.039,189.860 340.477,190.142 341.012 C 190.423 341.548,190.790 342.129,190.955 342.304 C 191.120 342.480,191.412 342.976,191.603 343.408 C 191.794 343.839,192.033 344.192,192.134 344.192 C 192.235 344.192,192.522 344.630,192.771 345.165 C 193.020 345.701,193.375 346.232,193.562 346.346 C 193.748 346.461,193.900 346.723,193.900 346.930 C 193.900 347.138,194.029 347.307,194.187 347.307 C 194.345 347.307,194.408 347.482,194.325 347.696 C 194.235 347.932,194.324 348.086,194.552 348.086 C 194.759 348.086,195.000 348.369,195.087 348.716 C 195.174 349.062,195.417 349.412,195.627 349.493 C 195.837 349.573,195.944 349.745,195.865 349.874 C 195.785 350.002,195.895 350.175,196.108 350.257 C 196.321 350.339,196.496 350.534,196.496 350.691 C 196.496 350.847,196.798 351.372,197.167 351.856 C 197.536 352.340,197.763 352.857,197.671 353.006 C 197.579 353.155,197.659 353.277,197.849 353.277 C 198.039 353.277,198.426 353.714,198.708 354.249 C 198.990 354.783,199.396 355.429,199.611 355.685 C 199.825 355.940,199.963 356.215,199.917 356.295 C 199.872 356.375,200.280 356.762,200.826 357.155 C 202.188 358.136,203.698 358.150,204.713 357.191 C 205.738 356.221,206.599 355.160,206.466 355.027 C 206.405 354.966,206.677 354.569,207.071 354.144 C 207.465 353.719,207.814 353.241,207.846 353.083 C 207.878 352.924,208.579 351.787,209.403 350.556 C 210.228 349.324,211.105 347.944,211.354 347.487 C 211.603 347.031,211.953 346.541,212.133 346.398 C 212.313 346.256,212.662 345.701,212.909 345.165 C 213.179 344.582,213.543 344.190,213.818 344.188 C 214.159 344.185,214.190 344.129,213.939 343.970 C 213.683 343.808,213.795 343.548,214.401 342.900 C 214.840 342.429,215.154 341.998,215.097 341.941 C 214.976 341.820,218.547 336.263,219.248 335.481 C 219.512 335.187,219.930 334.516,220.178 333.989 C 220.425 333.462,220.723 333.030,220.839 333.030 C 220.956 333.030,221.199 332.622,221.379 332.122 C 221.560 331.622,221.875 331.213,222.080 331.213 C 222.285 331.213,222.453 330.997,222.453 330.732 C 222.453 330.468,222.716 329.958,223.037 329.599 C 223.358 329.241,223.657 328.796,223.700 328.611 C 223.820 328.097,225.365 326.022,225.627 326.022 C 225.754 326.022,225.790 325.912,225.707 325.778 C 225.538 325.505,227.099 323.167,227.450 323.167 C 227.574 323.167,227.603 323.050,227.515 322.907 C 227.426 322.764,227.478 322.648,227.629 322.648 C 227.780 322.648,227.879 322.560,227.848 322.453 C 227.744 322.090,229.070 320.056,229.412 320.054 C 229.599 320.053,229.691 319.955,229.618 319.836 C 229.478 319.610,230.645 317.726,231.129 317.395 C 231.283 317.290,231.313 317.203,231.196 317.201 C 230.975 317.196,231.988 315.630,232.391 315.351 C 232.517 315.263,232.610 315.117,232.597 315.025 C 232.556 314.742,234.453 312.005,234.690 312.005 C 234.812 312.005,234.899 311.918,234.882 311.811 C 234.811 311.362,234.938 311.037,235.369 310.562 C 235.619 310.285,235.970 309.731,236.148 309.330 C 236.326 308.929,236.591 308.675,236.737 308.765 C 236.883 308.855,236.980 308.833,236.953 308.715 C 236.860 308.300,237.505 307.058,237.892 306.910 C 238.108 306.827,238.219 306.655,238.140 306.527 C 238.061 306.399,238.120 306.295,238.272 306.295 C 238.423 306.295,238.546 306.119,238.546 305.905 C 238.546 305.691,238.770 305.292,239.044 305.018 C 239.318 304.745,239.473 304.453,239.390 304.369 C 239.307 304.286,239.375 304.218,239.541 304.218 C 239.708 304.218,239.817 304.130,239.785 304.023 C 239.702 303.752,240.689 302.141,240.939 302.141 C 241.050 302.141,241.142 301.970,241.142 301.761 C 241.142 301.552,241.375 301.257,241.659 301.105 C 241.943 300.953,242.163 300.744,242.147 300.641 C 242.081 300.199,242.208 299.872,242.635 299.393 C 242.884 299.112,243.312 298.448,243.584 297.916 C 243.856 297.385,244.232 296.950,244.419 296.950 C 244.607 296.950,244.697 296.787,244.621 296.588 C 244.544 296.388,244.707 296.067,244.983 295.874 C 245.259 295.681,245.515 295.406,245.551 295.263 C 245.817 294.218,246.615 293.056,247.068 293.056 C 247.226 293.056,247.294 292.896,247.219 292.701 C 247.144 292.505,247.264 292.163,247.487 291.940 C 247.709 291.718,247.891 291.411,247.891 291.258 C 247.891 291.105,248.008 290.980,248.151 290.980 C 248.293 290.980,248.410 290.876,248.410 290.750 C 248.410 290.294,250.105 287.895,250.437 287.880 C 250.624 287.872,250.707 287.752,250.621 287.613 C 250.484 287.392,251.110 286.148,251.538 285.788 C 251.623 285.717,251.771 285.447,251.867 285.188 C 251.962 284.929,252.157 284.789,252.299 284.877 C 252.442 284.965,252.495 284.875,252.419 284.675 C 252.342 284.477,252.461 284.164,252.681 283.981 C 252.902 283.798,253.082 283.493,253.082 283.304 C 253.082 283.114,253.230 282.866,253.409 282.751 C 253.589 282.637,253.966 282.106,254.247 281.570 C 254.528 281.035,254.848 280.597,254.958 280.597 C 255.069 280.597,255.159 280.422,255.159 280.208 C 255.159 279.994,255.331 279.818,255.540 279.818 C 255.752 279.818,255.862 279.664,255.788 279.471 C 255.715 279.279,255.835 278.973,256.056 278.790 C 256.276 278.607,256.457 278.296,256.457 278.099 C 256.457 277.903,256.574 277.742,256.716 277.742 C 256.859 277.742,256.976 277.563,256.976 277.344 C 256.976 277.126,257.151 276.879,257.365 276.797 C 257.579 276.715,257.755 276.485,257.755 276.286 C 257.755 276.087,257.869 275.925,258.009 275.925 C 258.149 275.925,258.337 275.633,258.427 275.276 C 258.516 274.919,258.749 274.627,258.943 274.627 C 259.137 274.627,259.237 274.473,259.165 274.286 C 259.093 274.098,259.344 273.609,259.723 273.200 C 260.464 272.401,260.921 270.474,260.369 270.474 C 260.199 270.474,260.123 270.372,260.200 270.248 C 260.277 270.123,260.108 269.755,259.826 269.429 C 259.543 269.103,259.312 268.680,259.312 268.487 C 259.312 268.295,259.188 268.138,259.037 268.138 C 258.886 268.138,258.835 268.021,258.923 267.878 C 259.011 267.735,258.984 267.618,258.863 267.618 C 258.605 267.618,256.716 264.876,256.716 264.500 C 256.716 264.359,256.626 264.244,256.516 264.244 C 256.406 264.244,256.086 263.806,255.805 263.271 C 255.524 262.735,255.147 262.204,254.967 262.090 C 254.787 261.975,254.640 261.753,254.640 261.595 C 254.640 261.437,254.348 260.925,253.991 260.457 C 253.634 259.989,253.342 259.555,253.342 259.492 C 253.342 259.429,252.466 258.078,251.395 256.490 C 250.323 254.901,249.514 253.602,249.596 253.602 C 249.679 253.602,249.392 253.173,248.960 252.649 C 248.528 252.125,248.235 251.599,248.308 251.481 C 248.381 251.362,248.320 251.265,248.173 251.265 C 247.868 251.265,247.065 249.841,247.261 249.646 C 247.331 249.576,247.092 249.325,246.731 249.088 C 246.370 248.851,246.074 248.494,246.074 248.293 C 246.074 248.092,245.891 247.745,245.668 247.522 C 245.445 247.299,245.346 246.980,245.449 246.815 C 245.559 246.637,245.522 246.583,245.360 246.683 C 245.118 246.833,243.681 244.775,243.747 244.372 C 243.761 244.287,243.560 244.022,243.301 243.783 C 242.665 243.197,241.894 241.774,242.101 241.568 C 242.192 241.476,242.101 241.401,241.899 241.401 C 241.560 241.401,239.529 238.405,239.568 237.962 C 239.577 237.855,239.380 237.542,239.130 237.267 C 238.179 236.219,238.005 235.936,238.159 235.688 C 238.246 235.547,238.135 235.432,237.913 235.432 C 237.690 235.432,237.508 235.344,237.508 235.237 C 237.508 235.129,236.868 234.063,236.086 232.867 C 235.303 231.671,234.726 230.591,234.803 230.466 C 234.880 230.342,234.761 230.240,234.538 230.240 C 234.316 230.240,234.134 230.116,234.134 229.963 C 234.134 229.811,233.842 229.304,233.486 228.837 C 233.130 228.370,232.916 227.911,233.010 227.816 C 233.105 227.722,233.065 227.644,232.923 227.644 C 232.638 227.644,231.019 225.264,231.019 224.845 C 231.019 224.702,230.663 224.203,230.227 223.737 C 229.627 223.095,229.517 222.837,229.773 222.675 C 230.035 222.509,230.021 222.460,229.711 222.457 C 229.492 222.455,228.802 221.665,228.178 220.701 C 227.555 219.737,226.596 218.264,226.047 217.427 C 225.498 216.589,225.049 215.743,225.049 215.545 C 225.049 215.347,224.925 215.185,224.774 215.185 C 224.623 215.185,224.582 215.050,224.684 214.885 C 224.799 214.700,224.755 214.656,224.571 214.770 C 224.390 214.882,224.144 214.667,223.948 214.226 C 223.770 213.826,223.415 213.266,223.159 212.984 C 222.902 212.701,222.626 212.205,222.545 211.881 C 222.463 211.557,222.311 211.291,222.206 211.291 C 222.101 211.291,221.793 210.853,221.520 210.318 C 221.248 209.783,220.848 209.169,220.632 208.955 C 220.140 208.467,218.850 206.486,218.758 206.076 C 218.720 205.908,218.429 205.479,218.110 205.124 C 217.791 204.768,217.594 204.375,217.671 204.250 C 217.748 204.125,217.681 204.023,217.521 204.023 C 217.361 204.023,217.303 203.907,217.391 203.764 C 217.480 203.621,217.377 203.504,217.165 203.504 C 216.952 203.504,216.695 203.241,216.595 202.920 C 216.494 202.599,216.136 202.006,215.798 201.602 C 215.461 201.199,215.185 200.702,215.185 200.499 C 215.185 200.296,215.087 200.130,214.966 200.130 C 214.846 200.130,214.525 199.692,214.252 199.156 C 213.980 198.621,213.640 198.097,213.498 197.992 C 213.355 197.887,213.320 197.800,213.420 197.798 C 213.521 197.795,213.312 197.480,212.957 197.097 C 212.602 196.713,212.372 196.240,212.447 196.045 C 212.522 195.850,212.481 195.753,212.356 195.831 C 212.231 195.908,211.985 195.797,211.808 195.584 C 211.632 195.372,211.589 195.196,211.714 195.194 C 211.838 195.192,211.815 195.104,211.661 194.999 C 211.177 194.669,210.010 192.785,210.150 192.559 C 210.224 192.440,210.171 192.343,210.034 192.343 C 209.792 192.343,207.003 188.192,207.069 187.930 C 207.087 187.859,206.934 187.707,206.730 187.593 C 206.526 187.478,206.360 187.222,206.360 187.022 C 206.360 186.822,206.067 186.344,205.711 185.959 C 205.354 185.573,205.062 185.100,205.062 184.907 C 205.062 184.714,204.963 184.555,204.843 184.555 C 204.723 184.555,204.401 184.128,204.129 183.605 C 203.857 183.083,203.371 182.365,203.050 182.010 C 202.729 181.655,202.466 181.213,202.466 181.027 C 202.466 180.841,202.170 180.369,201.808 179.978 C 201.446 179.588,201.208 179.114,201.280 178.927 C 201.352 178.739,201.242 178.585,201.035 178.585 C 200.828 178.585,200.586 178.293,200.496 177.936 C 200.406 177.579,200.229 177.287,200.102 177.287 C 199.974 177.287,199.870 177.125,199.870 176.926 C 199.870 176.727,199.695 176.497,199.481 176.415 C 199.267 176.333,199.091 176.137,199.091 175.980 C 199.091 175.824,198.789 175.299,198.420 174.815 C 198.051 174.331,197.824 173.814,197.916 173.665 C 198.009 173.516,197.931 173.393,197.744 173.392 C 197.335 173.390,196.433 171.889,196.640 171.554 C 196.720 171.424,196.629 171.317,196.437 171.317 C 196.245 171.317,195.882 170.967,195.629 170.539 C 195.376 170.110,195.247 169.760,195.342 169.760 C 195.437 169.760,195.276 169.555,194.983 169.306 C 194.436 168.839,193.494 167.385,193.217 166.580 C 193.131 166.330,192.951 166.126,192.816 166.126 C 192.682 166.126,192.644 166.009,192.732 165.866 C 192.820 165.724,192.772 165.607,192.624 165.607 C 192.268 165.607,191.533 164.166,191.769 163.931 C 191.870 163.829,191.797 163.785,191.606 163.833 C 191.415 163.881,191.065 163.569,190.827 163.140 C 190.590 162.711,190.125 161.981,189.794 161.517 C 189.463 161.054,189.288 160.673,189.405 160.671 C 189.522 160.669,189.495 160.581,189.345 160.476 C 188.918 160.177,187.871 158.598,188.100 158.598 C 188.213 158.598,188.045 158.416,187.728 158.194 C 187.411 157.972,187.151 157.672,187.151 157.528 C 187.151 157.384,186.849 156.870,186.480 156.386 C 186.111 155.902,185.884 155.384,185.976 155.235 C 186.068 155.086,185.988 154.964,185.798 154.964 C 185.608 154.964,185.166 154.439,184.815 153.796 C 184.464 153.154,184.087 152.628,183.977 152.628 C 183.867 152.628,183.777 152.453,183.777 152.239 C 183.777 152.025,183.673 151.849,183.545 151.849 C 183.418 151.849,183.241 151.557,183.151 151.201 C 183.061 150.844,182.874 150.552,182.734 150.552 C 182.593 150.552,182.479 150.386,182.479 150.184 C 182.479 149.982,182.391 149.777,182.284 149.730 C 181.980 149.595,180.402 147.255,180.402 146.940 C 180.402 146.785,180.286 146.658,180.143 146.658 C 180.000 146.658,179.883 146.497,179.883 146.300 C 179.883 146.104,179.703 145.793,179.482 145.610 C 179.261 145.427,179.141 145.120,179.214 144.929 C 179.289 144.736,179.178 144.581,178.967 144.581 C 178.757 144.581,178.585 144.452,178.585 144.294 C 178.585 144.136,178.235 143.565,177.807 143.024 C 177.378 142.483,177.028 141.952,177.028 141.843 C 177.028 141.734,176.736 141.263,176.379 140.795 C 176.022 140.327,175.730 139.819,175.730 139.667 C 175.730 139.515,175.601 139.390,175.443 139.390 C 175.285 139.390,175.223 139.215,175.305 139.001 C 175.396 138.763,175.305 138.611,175.073 138.611 C 174.863 138.611,174.692 138.520,174.692 138.409 C 174.692 138.298,174.047 137.239,173.260 136.055 C 172.472 134.872,171.895 133.795,171.977 133.662 C 172.059 133.529,171.974 133.418,171.787 133.415 C 171.439 133.411,169.318 130.081,169.435 129.724 C 169.471 129.615,169.377 129.526,169.225 129.526 C 169.074 129.526,169.034 129.391,169.136 129.227 C 169.248 129.046,169.207 128.997,169.034 129.104 C 168.759 129.274,168.042 128.302,168.273 128.072 C 168.334 128.010,167.992 127.543,167.513 127.035 C 167.033 126.526,166.701 126.013,166.774 125.893 C 166.848 125.774,166.808 125.638,166.687 125.590 C 166.157 125.382,163.334 120.823,163.621 120.640 C 163.819 120.513,163.780 120.448,163.506 120.445 C 163.279 120.443,162.870 120.003,162.598 119.468 C 162.325 118.933,161.915 118.319,161.685 118.105 C 161.456 117.891,161.185 117.453,161.084 117.132 C 160.982 116.811,160.791 116.548,160.657 116.548 C 160.524 116.548,160.415 116.382,160.415 116.180 C 160.415 115.978,160.328 115.773,160.221 115.726 C 159.909 115.587,158.512 113.346,158.512 112.984 C 158.512 112.802,158.434 112.654,158.339 112.654 C 158.092 112.654,156.119 109.737,156.197 109.487 C 156.233 109.373,156.126 109.280,155.959 109.280 C 155.793 109.280,155.722 109.214,155.802 109.134 C 155.882 109.054,155.671 108.689,155.331 108.323 C 154.992 107.956,154.778 107.555,154.855 107.430 C 154.932 107.305,154.864 107.203,154.705 107.203 C 154.545 107.203,154.487 107.086,154.575 106.944 C 154.663 106.801,154.618 106.684,154.474 106.684 C 154.243 106.684,153.527 105.680,151.976 103.180 C 151.710 102.751,151.517 102.370,151.547 102.331 C 151.576 102.293,151.369 102.012,151.085 101.708 C 150.802 101.403,150.631 101.055,150.706 100.934 C 150.781 100.813,150.731 100.714,150.597 100.714 C 150.341 100.714,148.151 97.548,148.142 97.167 C 148.139 97.048,147.986 96.833,147.801 96.690 C 147.616 96.548,147.430 96.265,147.386 96.063 C 147.343 95.861,147.098 95.477,146.843 95.210 C 146.588 94.943,146.460 94.594,146.559 94.435 C 146.668 94.258,146.621 94.217,146.439 94.330 C 146.261 94.439,146.139 94.350,146.139 94.110 C 146.139 93.887,146.040 93.705,145.920 93.705 C 145.800 93.705,145.479 93.278,145.206 92.755 C 144.934 92.233,144.448 91.515,144.127 91.160 C 143.806 90.805,143.543 90.363,143.543 90.177 C 143.543 89.991,143.251 89.523,142.894 89.138 C 142.537 88.753,142.245 88.280,142.245 88.087 C 142.245 87.893,142.155 87.735,142.045 87.735 C 141.934 87.735,141.614 87.297,141.333 86.762 C 141.052 86.226,140.754 85.730,140.671 85.659 C 140.587 85.587,140.294 85.120,140.019 84.620 C 139.745 84.121,139.374 83.618,139.195 83.504 C 139.017 83.390,138.871 83.127,138.871 82.920 C 138.871 82.713,138.779 82.544,138.667 82.544 C 138.341 82.544,137.527 81.011,137.703 80.726 C 137.791 80.584,137.729 80.467,137.565 80.467 C 137.248 80.467,136.298 79.444,136.284 79.087 C 136.279 78.971,135.983 78.492,135.626 78.024 C 135.269 77.556,134.977 77.075,134.977 76.955 C 134.977 76.835,134.735 76.479,134.439 76.164 C 134.143 75.849,133.872 75.394,133.837 75.153 C 133.802 74.912,133.656 74.637,133.514 74.541 C 133.156 74.300,131.603 71.991,131.603 71.700 C 131.603 71.570,131.311 71.124,130.954 70.709 C 130.598 70.294,130.305 69.862,130.305 69.749 C 130.305 69.636,129.838 68.911,129.267 68.138 C 128.696 67.365,128.228 66.610,128.228 66.461 C 128.228 66.313,128.112 66.191,127.969 66.191 C 127.826 66.191,127.709 66.030,127.709 65.834 C 127.709 65.639,127.187 64.996,126.548 64.407 L 125.386 63.337 69.888 63.338 L 14.390 63.340 13.457 63.974 M242.100 64.051 C 241.583 64.443,241.157 64.909,241.152 65.088 C 241.146 65.266,241.018 65.412,240.867 65.412 C 240.716 65.412,240.673 65.542,240.771 65.701 C 240.869 65.859,240.788 66.093,240.591 66.220 C 240.301 66.407,240.297 66.491,240.571 66.668 C 240.757 66.788,240.928 67.139,240.951 67.447 C 240.974 67.755,241.079 68.008,241.185 68.008 C 241.291 68.008,241.569 68.411,241.803 68.904 C 242.037 69.397,242.393 69.937,242.594 70.104 C 242.795 70.271,242.959 70.510,242.959 70.635 C 242.959 70.760,243.379 71.446,243.892 72.160 C 244.405 72.874,244.751 73.459,244.661 73.459 C 244.570 73.459,244.730 73.710,245.017 74.017 C 245.303 74.324,245.476 74.675,245.401 74.796 C 245.326 74.917,245.395 75.016,245.555 75.016 C 245.714 75.016,245.762 75.151,245.660 75.316 C 245.541 75.507,245.589 75.545,245.792 75.420 C 245.994 75.295,246.161 75.422,246.252 75.769 C 246.330 76.069,246.497 76.314,246.623 76.314 C 246.750 76.314,246.853 76.475,246.853 76.672 C 246.853 76.868,247.033 77.179,247.254 77.362 C 247.475 77.545,247.595 77.852,247.522 78.043 C 247.444 78.246,247.564 78.391,247.813 78.391 C 248.046 78.391,248.166 78.462,248.079 78.548 C 247.993 78.635,248.208 79.015,248.558 79.392 C 248.908 79.769,249.128 80.250,249.048 80.459 C 248.968 80.669,248.982 80.761,249.080 80.663 C 249.298 80.445,250.089 81.423,250.339 82.219 C 250.439 82.541,250.643 82.803,250.792 82.803 C 250.940 82.803,250.995 82.977,250.913 83.190 C 250.832 83.402,250.864 83.548,250.985 83.514 C 251.307 83.424,253.131 86.149,252.947 86.446 C 252.862 86.584,252.961 86.697,253.167 86.697 C 253.373 86.697,253.610 86.901,253.694 87.151 C 253.917 87.818,254.459 88.612,254.866 88.869 C 255.167 89.059,255.167 89.128,254.866 89.319 C 254.583 89.498,254.600 89.545,254.947 89.548 C 255.187 89.550,255.459 89.790,255.551 90.080 C 255.643 90.370,256.001 90.913,256.347 91.286 C 256.693 91.659,256.976 92.122,256.976 92.316 C 256.976 92.509,257.064 92.668,257.171 92.669 C 257.474 92.671,258.294 94.242,258.130 94.507 C 258.049 94.637,258.164 94.744,258.383 94.744 C 258.603 94.744,258.856 95.036,258.946 95.393 C 259.036 95.750,259.213 96.042,259.340 96.042 C 259.468 96.042,259.572 96.204,259.572 96.403 C 259.572 96.602,259.747 96.832,259.961 96.914 C 260.175 96.996,260.350 97.242,260.350 97.461 C 260.350 97.680,260.467 97.859,260.610 97.859 C 260.753 97.859,260.870 98.019,260.870 98.216 C 260.870 98.413,261.050 98.724,261.271 98.907 C 261.491 99.090,261.612 99.396,261.538 99.587 C 261.465 99.779,261.558 99.935,261.745 99.935 C 261.933 99.935,262.308 100.370,262.581 100.902 C 262.853 101.434,263.339 102.162,263.660 102.522 C 263.981 102.881,264.244 103.271,264.244 103.389 C 264.244 103.507,264.546 104.000,264.915 104.484 C 265.284 104.968,265.511 105.486,265.419 105.634 C 265.327 105.783,265.407 105.905,265.597 105.905 C 265.787 105.905,266.173 106.343,266.454 106.879 C 266.735 107.414,267.024 107.910,267.097 107.982 C 267.510 108.387,268.916 110.577,268.916 110.815 C 268.916 110.970,269.008 111.097,269.120 111.097 C 269.447 111.097,270.260 112.630,270.084 112.914 C 269.996 113.057,270.077 113.176,270.264 113.179 C 270.577 113.184,272.485 115.893,272.509 116.366 C 272.515 116.481,272.880 116.984,273.320 117.485 C 273.759 117.986,274.051 118.506,273.968 118.640 C 273.885 118.774,273.928 118.884,274.063 118.884 C 274.334 118.884,275.093 119.950,275.205 120.488 C 275.244 120.676,275.480 120.983,275.730 121.170 C 275.980 121.356,276.189 121.648,276.195 121.819 C 276.201 121.989,276.546 122.527,276.963 123.014 C 277.379 123.501,277.660 123.998,277.586 124.117 C 277.512 124.237,277.550 124.335,277.670 124.335 C 277.953 124.335,278.877 125.890,278.600 125.900 C 278.485 125.905,278.598 126.028,278.850 126.176 C 279.103 126.323,279.242 126.553,279.160 126.687 C 279.077 126.821,279.131 126.931,279.281 126.931 C 279.553 126.931,280.768 128.675,280.797 129.108 C 280.805 129.235,280.915 129.410,281.042 129.497 C 281.496 129.812,282.395 131.276,282.233 131.437 C 282.142 131.528,282.211 131.603,282.386 131.603 C 282.561 131.603,282.632 131.720,282.544 131.862 C 282.456 132.005,282.488 132.122,282.615 132.122 C 282.743 132.122,283.293 132.794,283.838 133.615 C 284.384 134.435,285.182 135.621,285.612 136.248 C 286.042 136.876,286.394 137.547,286.394 137.741 C 286.394 137.934,286.472 138.092,286.567 138.092 C 286.742 138.092,287.884 139.730,289.372 142.116 C 289.818 142.829,290.483 143.848,290.852 144.379 C 291.220 144.910,291.506 145.422,291.488 145.518 C 291.470 145.613,291.555 145.763,291.678 145.850 C 291.929 146.030,292.681 147.172,292.807 147.567 C 292.852 147.709,293.044 147.980,293.233 148.169 C 293.421 148.358,293.576 148.679,293.576 148.883 C 293.576 149.087,293.692 149.254,293.835 149.254 C 293.978 149.254,294.097 149.517,294.099 149.838 C 294.102 150.292,294.155 150.339,294.340 150.046 C 294.527 149.751,294.616 149.821,294.754 150.370 C 294.851 150.756,295.009 151.071,295.105 151.071 C 295.411 151.071,296.208 152.618,296.041 152.888 C 295.953 153.031,296.034 153.148,296.221 153.148 C 296.532 153.148,297.281 154.142,298.637 156.353 C 299.704 158.092,300.823 159.788,301.344 160.456 C 301.640 160.836,301.882 161.256,301.882 161.389 C 301.882 161.523,302.177 161.972,302.538 162.387 C 302.898 162.801,303.261 163.404,303.344 163.725 C 303.428 164.046,303.581 164.309,303.686 164.309 C 303.791 164.309,304.100 164.747,304.372 165.282 C 304.644 165.818,305.049 166.431,305.271 166.645 C 305.830 167.184,308.256 171.137,308.177 171.379 C 308.141 171.488,308.235 171.577,308.387 171.577 C 308.538 171.577,308.589 171.694,308.501 171.836 C 308.413 171.979,308.494 172.096,308.682 172.096 C 308.870 172.096,309.179 172.449,309.370 172.881 C 309.561 173.312,309.860 173.808,310.035 173.984 C 310.464 174.416,312.257 177.236,312.333 177.601 C 312.367 177.762,312.570 178.099,312.784 178.350 C 313.669 179.390,313.822 179.614,313.822 179.872 C 313.822 180.021,313.919 180.143,314.038 180.143 C 314.157 180.143,314.409 180.433,314.599 180.788 C 314.819 181.200,315.257 181.492,315.811 181.595 C 316.287 181.685,316.677 181.862,316.677 181.989 C 316.677 182.116,316.853 182.219,317.067 182.219 C 317.281 182.219,317.456 182.103,317.456 181.960 C 317.456 181.817,317.667 181.700,317.925 181.700 C 318.446 181.700,319.949 180.679,320.026 180.273 C 320.053 180.130,320.565 179.254,321.163 178.326 C 321.760 177.398,322.310 176.522,322.384 176.379 C 322.741 175.687,323.587 174.490,324.171 173.848 C 324.529 173.456,324.734 173.134,324.627 173.134 C 324.520 173.134,324.775 172.638,325.195 172.031 C 325.614 171.424,326.342 170.315,326.812 169.565 C 327.282 168.816,327.771 168.202,327.898 168.202 C 328.025 168.202,328.057 168.086,327.969 167.943 C 327.881 167.800,327.997 167.683,328.228 167.683 C 328.459 167.683,328.573 167.561,328.481 167.413 C 328.389 167.264,328.616 166.746,328.985 166.262 C 329.354 165.778,329.656 165.264,329.656 165.120 C 329.656 164.975,329.916 164.676,330.233 164.453 C 330.550 164.231,330.723 164.049,330.616 164.049 C 330.391 164.049,331.205 162.710,331.597 162.436 C 331.743 162.335,331.868 162.101,331.874 161.917 C 331.881 161.734,332.023 161.611,332.189 161.645 C 332.356 161.679,332.431 161.545,332.355 161.348 C 332.279 161.150,332.429 160.830,332.689 160.637 C 332.948 160.444,333.160 160.169,333.160 160.026 C 333.160 159.558,335.229 156.533,335.553 156.527 C 335.727 156.524,335.809 156.365,335.736 156.174 C 335.663 155.983,335.783 155.676,336.004 155.493 C 336.224 155.310,336.405 154.999,336.405 154.803 C 336.405 154.606,336.587 154.445,336.810 154.445 C 337.032 154.445,337.143 154.329,337.055 154.187 C 336.967 154.045,337.177 153.549,337.520 153.084 C 337.864 152.619,338.217 152.034,338.305 151.785 C 338.393 151.535,338.640 151.330,338.855 151.330 C 339.094 151.330,339.186 151.180,339.095 150.941 C 339.012 150.727,339.062 150.552,339.204 150.552 C 339.347 150.552,339.537 150.260,339.626 149.903 C 339.716 149.546,339.904 149.254,340.044 149.254 C 340.184 149.254,340.299 149.134,340.299 148.987 C 340.299 148.840,340.941 147.782,341.726 146.635 C 342.511 145.489,343.154 144.441,343.154 144.306 C 343.154 144.172,343.271 144.062,343.413 144.062 C 343.556 144.062,343.673 143.887,343.673 143.673 C 343.673 143.459,343.762 143.284,343.871 143.284 C 344.069 143.284,344.538 142.514,344.860 141.661 C 344.954 141.411,345.135 141.207,345.261 141.207 C 345.387 141.207,345.490 141.028,345.490 140.810 C 345.490 140.591,345.665 140.345,345.879 140.263 C 346.093 140.180,346.269 139.950,346.269 139.752 C 346.269 139.553,346.383 139.390,346.523 139.390 C 346.663 139.390,346.851 139.098,346.941 138.741 C 347.030 138.384,347.208 138.092,347.335 138.092 C 347.462 138.092,347.567 137.910,347.567 137.687 C 347.567 137.465,347.683 137.355,347.826 137.443 C 347.969 137.531,348.086 137.381,348.086 137.109 C 348.086 136.837,348.290 136.371,348.540 136.075 C 348.790 135.778,349.195 135.205,349.441 134.802 C 349.687 134.399,350.037 133.840,350.220 133.560 C 351.573 131.487,352.226 130.466,353.018 129.185 C 353.517 128.377,354.059 127.714,354.222 127.713 C 354.384 127.711,354.501 127.505,354.481 127.255 C 354.461 127.005,354.587 126.829,354.760 126.863 C 354.934 126.897,355.016 126.769,354.943 126.580 C 354.870 126.390,354.991 126.085,355.212 125.902 C 355.433 125.719,355.613 125.415,355.613 125.226 C 355.613 125.038,355.873 124.702,356.190 124.479 C 356.507 124.257,356.680 124.075,356.574 124.075 C 356.348 124.075,357.162 122.736,357.554 122.462 C 357.700 122.361,357.825 122.127,357.831 121.943 C 357.838 121.760,357.980 121.637,358.147 121.671 C 358.313 121.705,358.388 121.571,358.312 121.374 C 358.236 121.176,358.415 120.846,358.709 120.640 C 359.003 120.434,359.177 120.198,359.095 120.116 C 358.841 119.862,359.806 118.619,360.119 118.798 C 360.282 118.891,360.330 118.873,360.226 118.757 C 359.961 118.465,361.081 116.548,361.517 116.548 C 361.713 116.548,361.808 116.441,361.727 116.311 C 361.564 116.046,362.383 114.475,362.687 114.473 C 362.794 114.472,362.881 114.303,362.881 114.096 C 362.881 113.890,363.099 113.569,363.365 113.383 C 363.632 113.196,363.879 112.927,363.916 112.784 C 364.143 111.890,364.476 111.356,364.806 111.356 C 365.016 111.356,365.270 111.221,365.372 111.057 C 365.493 110.860,365.442 110.828,365.224 110.963 C 365.040 111.076,364.939 111.065,364.997 110.938 C 365.559 109.725,365.871 109.280,366.159 109.280 C 366.346 109.280,366.439 109.123,366.365 108.931 C 366.291 108.739,366.558 108.224,366.957 107.786 C 367.357 107.348,367.721 106.833,367.768 106.642 C 367.814 106.451,367.960 106.256,368.092 106.208 C 368.224 106.161,368.332 105.956,368.332 105.754 C 368.332 105.552,368.436 105.386,368.564 105.386 C 368.691 105.386,368.868 105.094,368.958 104.737 C 369.048 104.380,369.235 104.088,369.375 104.088 C 369.516 104.088,369.630 103.913,369.630 103.699 C 369.630 103.485,369.812 103.310,370.035 103.310 C 370.257 103.310,370.368 103.193,370.280 103.051 C 370.192 102.910,370.419 102.402,370.784 101.924 C 371.149 101.446,371.447 100.916,371.447 100.746 C 371.447 100.577,371.622 100.371,371.836 100.289 C 372.051 100.206,372.226 99.976,372.226 99.778 C 372.226 99.579,372.340 99.416,372.480 99.416 C 372.620 99.416,372.808 99.124,372.898 98.767 C 372.988 98.410,373.165 98.118,373.292 98.118 C 373.420 98.118,373.524 97.991,373.524 97.836 C 373.524 97.681,373.855 97.068,374.261 96.473 C 374.666 95.879,375.337 94.867,375.752 94.225 C 376.168 93.582,376.575 92.998,376.657 92.927 C 376.739 92.855,376.884 92.585,376.980 92.326 C 377.085 92.041,377.283 91.930,377.480 92.043 C 377.660 92.147,377.726 92.141,377.627 92.031 C 377.313 91.682,379.769 87.735,380.300 87.735 C 380.445 87.735,380.487 87.613,380.395 87.464 C 380.303 87.316,380.530 86.798,380.899 86.314 C 381.268 85.830,381.570 85.316,381.570 85.172 C 381.570 85.027,381.775 84.757,382.025 84.570 C 382.274 84.384,382.517 84.056,382.563 83.842 C 382.609 83.628,382.986 83.140,383.401 82.758 C 383.815 82.377,384.027 82.022,383.871 81.970 C 383.711 81.916,383.881 81.526,384.266 81.069 C 384.640 80.625,384.945 80.189,384.945 80.099 C 384.945 79.840,386.779 77.243,387.111 77.032 C 387.276 76.927,387.294 76.838,387.151 76.833 C 386.978 76.828,386.978 76.762,387.151 76.635 C 387.485 76.390,388.032 75.534,388.227 74.951 C 388.311 74.701,388.483 74.497,388.609 74.497 C 388.735 74.497,388.838 74.328,388.838 74.122 C 388.838 73.916,389.101 73.564,389.422 73.339 C 389.744 73.114,389.993 72.844,389.977 72.740 C 389.912 72.328,390.499 71.382,390.819 71.382 C 391.005 71.382,391.098 71.225,391.024 71.033 C 390.951 70.842,391.222 70.330,391.627 69.896 C 392.032 69.463,392.320 68.977,392.266 68.818 C 392.213 68.658,392.354 68.456,392.579 68.370 C 392.804 68.284,392.924 68.108,392.845 67.981 C 392.766 67.853,392.797 67.748,392.914 67.748 C 393.217 67.748,393.173 65.613,392.862 65.188 C 392.719 64.994,392.290 64.498,391.909 64.086 L 391.215 63.336 317.127 63.338 L 243.038 63.339 242.100 64.051 " stroke="none" fill="#5c64f4" fill-rule="evenodd"></path><path id="path1" d="" stroke="none" fill="#8d95f4" fill-rule="evenodd"></path><path id="path2" d="M42.505 63.271 C 57.531 63.308,82.119 63.308,97.145 63.271 C 112.171 63.234,99.877 63.203,69.825 63.203 C 39.773 63.203,27.479 63.234,42.505 63.271 M280.553 63.271 C 300.730 63.307,333.670 63.307,353.752 63.271 C 373.835 63.234,357.326 63.204,317.067 63.204 C 276.807 63.204,260.376 63.234,280.553 63.271 M136.296 78.934 C 136.284 79.162,136.538 79.571,136.859 79.843 C 137.438 80.333,137.440 80.333,137.023 79.818 C 136.792 79.533,136.538 79.124,136.459 78.910 C 136.338 78.579,136.313 78.583,136.296 78.934 M384.238 81.051 C 383.679 81.774,383.617 82.020,384.034 81.860 C 384.262 81.772,384.386 81.639,384.309 81.562 C 384.233 81.486,384.301 81.267,384.460 81.075 C 384.619 80.884,384.690 80.727,384.619 80.727 C 384.548 80.727,384.376 80.873,384.238 81.051 M261.858 100.102 C 261.795 100.224,262.030 100.616,262.379 100.973 C 262.863 101.466,262.947 101.498,262.730 101.103 C 262.199 100.138,261.973 99.879,261.858 100.102 M263.496 102.661 C 263.728 102.946,263.981 103.355,264.060 103.569 C 264.181 103.900,264.206 103.896,264.224 103.544 C 264.235 103.317,263.981 102.908,263.660 102.636 C 263.081 102.146,263.080 102.146,263.496 102.661 M39.544 110.014 C 39.781 110.275,39.974 110.645,39.974 110.836 C 39.974 111.027,40.052 111.105,40.147 111.010 C 40.369 110.788,39.710 109.539,39.371 109.539 C 39.230 109.539,39.308 109.753,39.544 110.014 M340.388 148.616 C 340.154 149.225,340.407 149.296,340.765 148.723 C 340.965 148.402,340.983 148.215,340.812 148.215 C 340.663 148.215,340.473 148.396,340.388 148.616 M298.118 156.003 C 298.377 156.288,298.632 156.522,298.687 156.522 C 298.741 156.522,298.660 156.288,298.507 156.003 C 298.355 155.717,298.099 155.483,297.939 155.483 C 297.779 155.483,297.860 155.717,298.118 156.003 M201.168 179.115 C 201.168 179.261,201.343 179.447,201.556 179.529 C 201.769 179.611,201.868 179.801,201.775 179.950 C 201.677 180.110,201.732 180.146,201.907 180.038 C 202.292 179.800,202.297 179.816,201.687 179.294 C 201.402 179.050,201.168 178.969,201.168 179.115 M219.763 207.787 C 220.363 208.812,220.376 208.827,220.376 208.508 C 220.376 208.357,220.136 207.958,219.842 207.621 L 219.307 207.008 219.763 207.787 M227.385 219.598 C 227.538 219.883,227.793 220.117,227.953 220.117 C 228.113 220.117,228.033 219.883,227.774 219.598 C 227.516 219.312,227.260 219.079,227.206 219.079 C 227.151 219.079,227.232 219.312,227.385 219.598 M112.914 222.503 C 112.914 222.586,113.088 222.988,113.301 223.397 C 113.515 223.806,113.686 223.965,113.683 223.751 C 113.679 223.537,113.504 223.135,113.295 222.858 C 113.085 222.580,112.914 222.421,112.914 222.503 M119.247 232.370 C 119.477 232.721,119.576 233.104,119.469 233.223 C 119.361 233.341,119.420 233.354,119.598 233.251 C 119.948 233.050,119.659 232.246,119.115 231.910 C 118.958 231.813,119.018 232.020,119.247 232.370 " stroke="none" fill="#6a74f4" fill-rule="evenodd"></path><path id="path3" d="" stroke="none" fill="#7a84f4" fill-rule="evenodd"></path><path id="path4" d="" stroke="none" fill="#747cf4" fill-rule="evenodd"></path></g></svg>
